<?xml version="1.0" encoding="utf-8"?>
<!-- Generator: Adobe Illustrator 16.0.0, SVG Export Plug-In . SVG Version: 6.00 Build 0)  -->
<!DOCTYPE svg PUBLIC "-//W3C//DTD SVG 1.1//EN" "http://www.w3.org/Graphics/SVG/1.1/DTD/svg11.dtd">
<svg version="1.1" xmlns="http://www.w3.org/2000/svg" xmlns:xlink="http://www.w3.org/1999/xlink" x="0px" y="0px" width="266px"
	 height="60px" viewBox="0 0 266 60" enable-background="new 0 0 266 60" xml:space="preserve">
<g id="原來底圖" display="none">
</g>
<g id="Layer_3">
</g>
<g id="Layer_2">
	<g>
		<g>
			<g>
				<path fill="#838484" d="M46.495,51.345H2.374v6.626h44.121c0.39,0,0.705-0.315,0.705-0.703V52.05
					C47.2,51.661,46.885,51.345,46.495,51.345z"/>
				<path fill="#9B9B9B" d="M21.603,51.345H2v0.653h18.704c0.388,0,0.703,0.314,0.703,0.702v3.905c0,0.389-0.315,0.702-0.703,0.702
					H2v0.663h19.603c0.39,0,0.704-0.315,0.704-0.703V52.05C22.307,51.661,21.992,51.345,21.603,51.345z"/>
				<path fill="#FFFFFF" d="M21.407,56.605V52.7c0-0.388-0.315-0.702-0.703-0.702H2v5.31h18.704
					C21.092,57.308,21.407,56.994,21.407,56.605z"/>
			</g>
			<path fill="#CE303E" d="M42.863,43.953H6.414v7.417h36.449c0.371,0,0.671-0.301,0.671-0.672v-6.074
				C43.534,44.254,43.234,43.953,42.863,43.953z"/>
			<g>
				<path fill="#FFFFFF" d="M35.929,43.953H17.124c0.373,0,0.673,0.301,0.673,0.671v6.074c0,0.371-0.3,0.672-0.673,0.672h18.805
					c0.373,0,0.674-0.301,0.674-0.672v-6.074C36.603,44.254,36.302,43.953,35.929,43.953z"/>
				<path fill="#B07E89" d="M9.885,43.953h-4.66v0.622h3.801c0.373,0,0.671,0.301,0.671,0.671v4.818
					c0,0.372-0.298,0.673-0.671,0.673H5.225v0.633h4.66c0.372,0,0.671-0.301,0.671-0.672v-6.074
					C10.556,44.254,10.257,43.953,9.885,43.953z"/>
				<path fill="#FFFFFF" d="M5.225,44.575h3.801c0.373,0,0.671,0.301,0.671,0.671v4.818c0,0.372-0.298,0.673-0.671,0.673H5.225"/>
			</g>
			<path fill="#48C0D0" d="M21.417,43.953h2.963c0,0-2.736-0.396-2.736-3.161c0-2.765,2.42-3.031,2.42-3.031h-2.746"/>
			<g>
				<path fill="#48C0D0" d="M8.823,37.761v0.006c-2.072,0.101-3.714,1.445-3.714,3.089c0,1.646,1.642,2.99,3.714,3.089v0.009h17.422
					v-6.192H8.823z"/>
				<path fill="#268693" d="M22.345,40.855c0-1.45,1.176-2.626,2.628-2.626h15.611v-0.589H24.843c-1.768,0-3.199,1.434-3.199,3.201
					s1.432,3.2,3.199,3.2h15.741v-0.558H24.973C23.521,43.484,22.345,42.307,22.345,40.855z"/>
				<path fill="#FFFFFF" d="M24.973,38.229c-1.452,0-2.629,1.176-2.629,2.626c0,1.451,1.177,2.629,2.629,2.629h15.17v-5.255H24.973z
					"/>
			</g>
			<g>
				<path d="M21.613,12.116c0,0-2.533-1.289-3.244-4.622c-0.711-3.334,0.604-4.727,0.604-4.727s-1.508,0.158-1.388-1.442
					c0.117-1.6,1.915-1.452,2.39-1.086c0.474,0.363,0.553,1.185,0.553,1.185s1.245-0.503,3.013-0.286s2.587,1.579,2.716,2.213
					c0.127,0.631,0.089,3.22-0.197,4.325s-0.949,2.359-0.949,2.359s0.919,1.887,0.958,2.944
					C26.067,12.979,24.991,15.271,21.613,12.116z"/>
				<path d="M24.517,51.82l-1.467,3.288c0,0-0.946,2.163,0,2.888c0.949,0.728,3.384,0.556,3.453-0.398c0,0,0.104,0.801,1.303,0.739
					c1.2-0.058,2.934-0.147,2.43-1.924c-0.503-1.779-1.11-3.543-1.11-3.543l-2.341,1.914l-0.307,1.523l-0.671-3.274L24.517,51.82z"
					/>
				<path fill="#F6BA94" d="M24.399,50.273l-0.494,2.51l-0.652,3.832l3.339,0.157c0,0-0.376-2.488-0.711-3.713l1.185-2.906
					L24.399,50.273z"/>
				<path fill="#F6BA94" d="M27.699,50.153l-0.02,0.081l-0.633,2.726c0,0-0.849,2.411,0.158,3.911h2.705c0,0-0.074-1.307-0.75-3.654
					l1.145-3.063"/>
				<path fill="#2989C1" d="M15.964,32.16c0,0-0.099,4.426,0.711,4.939c0.811,0.512,1.384,1.539,6.796,1.48l2.943,0.003
					l-1.837,9.419l-0.435,2.549c0,0,1.6,0.929,3.357-0.178c0,0,1.087,1.145,3.023,0.117l5.018-12.049c0,0,1.401-2.805-0.219-3.971
					c-1.62-1.165-6.577-3.378-6.577-3.378l-2.547-1.922L15.964,32.16z"/>
				<path fill="#D95C41" d="M20.075,12.446l3.386,1.244l1.354-1.363c0,0,1.909,0.025,2.917,1.641
					c1.009,1.614,2.194,4.177,2.194,4.177l0.887,1.873l-3.036,3.675l-2.016,2.221c0,0-0.023,2.987-0.433,4.913
					c-0.41,1.927-0.637,1.719-0.637,1.719s-1.123,0.55-5.7,0.414c-4.577-0.132-4.029-0.607-4.029-0.607l1.556-4.178l-1.94-0.073
					c0,0-1.57-0.118-1.305-2.904c0.268-2.785,1.452-6.222,1.452-6.222l1.913-4.681c0,0,0.146-0.379,1.08-0.85
					C18.65,12.975,20.075,12.446,20.075,12.446z"/>
				<path fill="#D95C41" d="M25.328,25.661c0,0,0.552,5.313,0.414,7.172l3.596-1.346c0,0-1.68-4.227-1.521-7.209L25.328,25.661z"/>
				<path fill="#F2B98E" d="M19.006,6.995c0,0,0.436,1.619,1.066,1.481c0,0,0.16,1.203,1.009,1.698l-0.218,2.113L23.5,13.69
					l1.314-1.363c0,0-0.909-0.138-0.752-1.6c0,0,1.382-0.611,1.581-3.199c0.197-2.589,0-2.905,0-2.905s-0.276-0.395-0.712-0.395
					c-0.435,0-2.963,0.298-3.691-0.652c0,0,0,0.87-0.87,1.501c-0.87,0.633-0.337,2.332-0.337,2.332l-0.157,0.078
					c0,0-0.13-1.46-0.722-1.002C19.154,6.485,18.877,6.6,19.006,6.995z"/>
				<path fill="#E9DAC6" d="M19.668,12.724l1.235-0.841L23.5,13.69l-0.809,0.988c0,0-0.446,0.651-1.274,0.118
					C20.587,14.264,19.668,12.724,19.668,12.724z"/>
				<path fill="#E9DAC6" d="M24.814,12.327c0,0,0.899,0.162,1.21,0.271c0.101,0.036,0.086,0.32,0.086,0.32s0.095,0.892-0.329,1.415
					c-0.425,0.523-0.787,1.02-1.61,0.128c-0.82-0.891-0.71-0.771-0.71-0.771L24.814,12.327z"/>
				<path fill="#F2B98E" d="M37.575,18.718l1.431-2.122c0,0,1.344-2.866,0.426-3.044c0,0,0.613-1.371-0.035-1.174
					c-0.646,0.197-1.526,1.49-1.526,1.49s-0.603,0.593-0.592,1.146c0.01,0.554-0.06,0.988-0.06,0.988l-0.454,0.672
					C36.765,16.675,36.677,18.234,37.575,18.718z"/>
				<rect x="39.627" y="4.521" transform="matrix(0.9793 0.2025 -0.2025 0.9793 3.202 -7.8074)" width="0.265" height="14.45"/>
				<path fill="#F2B98E" d="M39.441,14.679c0,0-0.267,0.019-0.217-0.365c0.048-0.386,0.74-0.91,0.74-0.91s0.483-0.385,0.632,0
					c0.148,0.386-0.505,1.275-0.505,1.275s0.287,0.197,0.258,0.543c-0.03,0.346-0.365,1.057-0.365,1.057s0.079,0.514-0.533,0.752
					c-0.613,0.236-1.027,0.354-1.038-0.484C38.404,15.706,39.243,14.719,39.441,14.679z"/>
				<polygon fill="#FFFFFF" points="20.389,23.692 20.323,22.304 24.913,16.87 25.052,17.819 				"/>
				<polygon fill="#FFFFFF" points="25.052,17.819 24.913,16.87 30.701,18.056 30.813,18.75 				"/>
				<path fill="#FFFFFF" d="M30.221,18.292c0,0,1.596-1.492,3.187-1.425c0.024,0,0.048,0.001,0.073,0.003l0.726,0.609
					c0,0-2.211,1.759-2.549,2.538L30.221,18.292z"/>
				<path fill="#D95C41" d="M28.845,23.31c0,0,0.828,1.621,1.579,1.937c0.75,0.317,1.501,0.646,3.198-1.554
					c1.7-2.199,4.288-4.845,4.288-4.845s-0.868-0.199-1.264-2.412l-5.274,4.52l-0.415-0.49"/>
				<path fill="#2A88BF" d="M30.888,18.648c0,0,0.252,0.518,1.318,0.488L27.828,24.9c0,0-1.267,0.089-1.222-0.771L30.888,18.648z"/>
				<polyline fill="#2A88BF" points="20.323,23.748 26.028,24.902 30.813,18.75 25.12,17.681 				"/>
				<path fill="#F1BD9A" d="M23.568,24.338l0.149,1.764c0,0,2.049-0.09,2.895-0.371c0.844-0.281,2.694-1.804,2.337-2.148
					c-0.174-0.167-0.69,0.211-0.69,0.211s-1.504,0.264-1.593-0.729c-0.09-0.992,0.132-1.186,0.132-1.186s0.607-0.669-0.103-0.586
					c-0.711,0.083-0.993,1.017-0.993,1.017S25.155,24.159,23.568,24.338z"/>
			</g>
		</g>
		<g>
			<defs>
				<rect id="SVGID_1_" x="37.143" y="5.605" width="203.191" height="60.454"/>
			</defs>
			<clipPath id="SVGID_2_">
				<use xlink:href="#SVGID_1_"  overflow="visible"/>
			</clipPath>
			<g clip-path="url(#SVGID_2_)">
				<defs>
					<rect id="SVGID_3_" x="37.143" y="5.605" width="203.191" height="60.454"/>
				</defs>
				<clipPath id="SVGID_4_">
					<use xlink:href="#SVGID_3_"  overflow="visible"/>
				</clipPath>
				<g opacity="0" clip-path="url(#SVGID_4_)">
					<g>
						<defs>
							<rect id="SVGID_5_" x="37.143" y="5.605" width="203.191" height="60.454"/>
						</defs>
						<clipPath id="SVGID_6_">
							<use xlink:href="#SVGID_5_"  overflow="visible"/>
						</clipPath>
						<rect x="37.143" y="5.605" clip-path="url(#SVGID_6_)" fill="#FFFFFF" width="203.191" height="60.454"/>
					</g>
				</g>
			</g>
			<g clip-path="url(#SVGID_2_)">
				<defs>
					<path id="SVGID_7_" d="M198.962,49.734c-0.451,0.396-0.685,0.984-0.627,1.582c-0.032,0.624,0.198,1.232,0.634,1.679
						c0.299,0.204,0.649,0.313,1.009,0.314h0.15l0.002,0.003c0.519-0.002,0.997-0.284,1.25-0.737
						c0.227-0.38,0.336-0.818,0.314-1.261c0.025-0.539-0.163-1.067-0.522-1.47c-0.294-0.274-0.68-0.426-1.078-0.425h-0.108
						c-0.002,0-0.004,0-0.006,0C199.616,49.42,199.261,49.53,198.962,49.734 M173.233,48.263c0-0.001,0.001-0.001,0.002-0.001
						l-0.002-0.009V48.263z M161.789,52.871h1.165v1.052h-1.165V52.871z M189.299,52.871h1.152v1.052h-1.152V52.871z
						 M213.132,52.871h1.15v1.052h-1.15V52.871z M206.392,48.678h0.022c0.057-0.003,0.111-0.003,0.168,0
						c0.646,0.002,1.233,0.373,1.512,0.957c0.376-0.593,1.029-0.949,1.731-0.947h0.055c0.061-0.009,0.12-0.011,0.18-0.011h0.18
						c0.887,0.099,1.524,0.898,1.426,1.786v3.465h-1.052v-3.257c0.032-0.283-0.004-0.57-0.102-0.838
						c-0.107-0.298-0.388-0.425-0.948-0.425h-0.081c-0.421,0.002-0.818,0.196-1.077,0.528c-0.179,0.282-0.254,0.617-0.213,0.948
						v3.05h-1.052v-3.358c0-0.313,0-0.634-0.103-0.736c-0.152-0.265-0.435-0.429-0.74-0.427c-0.031-0.003-0.065-0.003-0.098,0
						c-0.257,0.02-0.508,0.092-0.736,0.21l-0.022,0.013c-0.207,0.107-0.399,0.206-0.399,0.411c-0.187,0.391-0.26,0.828-0.209,1.26
						v2.721h-0.942v-5.244h0.006h0.84v0.734C205.122,48.989,205.737,48.678,206.392,48.678 M139.656,51.933l0.101-0.213l0.946-3.047
						h0.947l0.839,3.045c0.004,0.05,0.017,0.098,0.039,0.142c0.041,0.089,0.063,0.186,0.063,0.281
						c0.03,0.089,0.052,0.168,0.07,0.241l0.018,0.065v0.015c0.01,0.11,0.05,0.216,0.117,0.305c0.004-0.112,0.036-0.222,0.091-0.322
						v-0.003c0.046-0.094,0.085-0.193,0.117-0.293c0.005-0.047,0.018-0.094,0.037-0.138c0.043-0.088,0.066-0.186,0.067-0.286
						l0.944-3.047h2.009l0.934,3.257c0.078,0.29,0.185,0.572,0.32,0.84c0.085-0.276,0.155-0.557,0.211-0.84l0.1-0.212l0.953-3.04
						h0.94l0.946,3.045c0.005,0.051,0.019,0.1,0.044,0.144c0.041,0.085,0.063,0.18,0.063,0.273c0.027,0.094,0.054,0.184,0.079,0.3
						v0.023c0.013,0.117,0.057,0.225,0.129,0.316c0.005-0.111,0.034-0.222,0.085-0.32v-0.02c0.045-0.092,0.084-0.188,0.118-0.284
						c0.002-0.042,0.013-0.082,0.032-0.118v-0.019c0.044-0.089,0.069-0.188,0.07-0.287l0.934-3.046h1.909l0.944,3.256
						c0.081,0.289,0.187,0.569,0.316,0.84c0.087-0.275,0.156-0.557,0.21-0.84l0.109-0.212l0.946-3.047h0.941l0.84,3.047
						c0.002,0.049,0.016,0.096,0.039,0.14v0.011c0.038,0.084,0.059,0.176,0.06,0.271c0.032,0.101,0.058,0.204,0.081,0.307
						c0.012,0.117,0.057,0.228,0.128,0.32c0.004-0.117,0.036-0.232,0.093-0.336v-0.014c0.044-0.092,0.083-0.184,0.118-0.277
						c0.004-0.047,0.017-0.095,0.037-0.137c0.043-0.089,0.065-0.188,0.065-0.285l0.947-3.049h1.041l-1.778,5.256h-1.052
						l-0.947-3.155c-0.021-0.063-0.12-0.354-0.209-0.732v-0.102l-1.128,4.002h-1.06l-1.731-5.105l-0.012,0.006l-1.73,5.093h-1.052
						l-0.948-3.155c0,0-0.103-0.323-0.206-0.732v-0.111l-1.153,3.995h-1.047l-1.729-5.097l-1.731,5.097h-1.051l-0.947-3.155
						c-0.003-0.008-0.107-0.335-0.212-0.734v-0.109l-1.155,3.986h-1.051l-1.786-5.254h1.053l0.945,3.257
						c0.074,0.288,0.181,0.571,0.315,0.839C139.529,52.494,139.6,52.216,139.656,51.933 M224.028,52.428v-0.016
						c0.046-0.091,0.084-0.184,0.118-0.278c0.004-0.047,0.017-0.093,0.037-0.135c0.044-0.09,0.066-0.188,0.067-0.287l0.945-3.047
						h1.043l-1.784,5.255h-1.052l-0.946-3.154c-0.04-0.133-0.123-0.402-0.208-0.727v-0.093l-1.144,3.981h-1.051l-1.785-5.255
						l1.046,0.003l0.948,3.257c0.077,0.288,0.184,0.568,0.313,0.839c0.088-0.276,0.157-0.556,0.21-0.839l0.11-0.213l0.934-3.047
						h0.947l0.841,3.047c0.005,0.05,0.02,0.099,0.044,0.143c0.04,0.086,0.063,0.179,0.063,0.274c0.033,0.108,0.061,0.21,0.082,0.306
						c0.013,0.117,0.057,0.228,0.127,0.321C223.94,52.646,223.972,52.531,224.028,52.428 M192.453,53.198
						c-0.423-0.535-0.646-1.202-0.627-1.888c-0.03-0.187-0.04-0.377-0.025-0.564c0.104-1.227,1.122-2.171,2.351-2.183l0.003,0.021
						c0.066,0,0.132,0.004,0.196,0.013h0.216c0.685,0,1.335,0.308,1.767,0.841c0.209,0.229,0.323,0.529,0.318,0.838l-0.943,0.104
						c-0.096-0.603-0.611-1.049-1.223-1.051h-0.039c-1.161,0-1.68,0.614-1.68,1.995c0,1.341,0.515,1.994,1.573,1.994
						c0.045,0.002,0.088,0.002,0.133,0h0.012c0.709,0,1.294-0.557,1.326-1.266l1.051,0.102c-0.087,0.687-0.521,1.28-1.15,1.573
						c-0.389,0.204-0.822,0.311-1.262,0.312c-0.032,0.002-0.064,0.002-0.097,0h-0.019C193.615,54.037,192.933,53.731,192.453,53.198
						 M200.005,53.928l-0.065-0.006c-0.766-0.004-1.499-0.304-2.046-0.841c-0.43-0.531-0.621-1.216-0.53-1.893
						c-0.014-0.688,0.211-1.355,0.634-1.896c0.522-0.533,1.239-0.837,1.985-0.839h0.117c0.634-0.003,1.251,0.181,1.784,0.522
						c0.534,0.611,0.831,1.395,0.84,2.209c0.008,0.073,0.012,0.148,0.011,0.224c0,1.391-1.13,2.519-2.521,2.519
						c-0.034,0.002-0.069,0.002-0.104,0.002S200.039,53.93,200.005,53.928 M216.073,47.524l0.941-0.523v1.784h0.945v0.735h-0.945
						v3.037c-0.027,0.182,0.01,0.366,0.106,0.522c0.118,0.134,0.289,0.212,0.467,0.213h0.475l0.104,0.627
						c-0.149,0.004-0.296,0.023-0.439,0.058c-0.097,0.025-0.195,0.039-0.294,0.044c-0.702,0-1.057-0.129-1.15-0.417
						c-0.164-0.362-0.238-0.761-0.214-1.16v-2.927h-0.733v-0.734l0.737,0.001V47.524z M165.26,48.472
						c0.94-0.334,1.748-0.958,2.308-1.784h0.626v7.234h-1.05v-5.669l-0.002,0.009c-0.549,0.472-1.189,0.83-1.882,1.05V48.472z
						 M171.351,48.472c0.939-0.328,1.749-0.955,2.299-1.784h0.635v7.234h-1.051v-5.659c-0.551,0.47-1.191,0.828-1.883,1.049V48.472z
						 M177.431,48.472c0.944-0.332,1.756-0.958,2.317-1.784h0.627v7.234h-1.051v-5.669l-0.005,0.009
						c-0.554,0.471-1.195,0.828-1.889,1.05V48.472z M183.522,48.472c0.94-0.332,1.751-0.958,2.31-1.784h0.633v7.234h-1.051v-5.669
						l-0.005,0.009c-0.551,0.472-1.194,0.829-1.887,1.05V48.472z M134.048,44.357v12.378h96.305h0.002V44.357H134.048z
						 M57.007,44.354v12.378h7.403h-0.001V44.354H57.007z M65.871,44.354v12.378h8.026h-0.004V44.354H65.871z M75.352,44.354v12.378
						H87.3h-0.003V44.354H75.352z M88.76,44.354v12.378h7.533h-0.005V44.354H88.76z M97.753,44.354v12.378h11.945h-0.005V44.354
						H97.753z M111.153,44.354v12.378h8.036h-0.004V44.354H111.153z M120.638,44.354v12.378h11.954h-0.007V44.354H120.638z"/>
				</defs>
				<clipPath id="SVGID_8_">
					<use xlink:href="#SVGID_7_"  overflow="visible"/>
				</clipPath>
				<defs>
					<filter id="Adobe_OpacityMaskFilter" filterUnits="userSpaceOnUse" x="57.007" y="44.354" width="173.348" height="12.381">
						<feColorMatrix  type="matrix" values="1 0 0 0 0  0 1 0 0 0  0 0 1 0 0  0 0 0 1 0"/>
					</filter>
				</defs>
				<mask maskUnits="userSpaceOnUse" x="57.007" y="44.354" width="173.348" height="12.381" id="SVGID_9_">
					<g filter="url(#Adobe_OpacityMaskFilter)">
						
							<linearGradient id="SVGID_10_" gradientUnits="userSpaceOnUse" x1="-426.9038" y1="-10.9541" x2="-426.3595" y2="-10.9541" gradientTransform="matrix(-333.8437 0 0 -23.8444 -142288.7969 -210.6396)">
							<stop  offset="0" style="stop-color:#FFFFFF"/>
							<stop  offset="0.1205" style="stop-color:#FBFBFB"/>
							<stop  offset="0.2454" style="stop-color:#EEEEEE"/>
							<stop  offset="0.3724" style="stop-color:#DADADA"/>
							<stop  offset="0.5008" style="stop-color:#BCBCBC"/>
							<stop  offset="0.6304" style="stop-color:#979797"/>
							<stop  offset="0.761" style="stop-color:#696969"/>
							<stop  offset="0.8898" style="stop-color:#343434"/>
							<stop  offset="1" style="stop-color:#000000"/>
						</linearGradient>
						<rect x="57.007" y="44.354" clip-path="url(#SVGID_8_)" fill="url(#SVGID_10_)" width="173.348" height="12.381"/>
					</g>
				</mask>
				
					<linearGradient id="SVGID_11_" gradientUnits="userSpaceOnUse" x1="-426.9038" y1="-10.9541" x2="-426.3595" y2="-10.9541" gradientTransform="matrix(-333.8438 0 0 -23.8444 -142288.8125 -210.6416)">
					<stop  offset="0" style="stop-color:#13272A"/>
					<stop  offset="0.3486" style="stop-color:#17282C"/>
					<stop  offset="0.6956" style="stop-color:#212D31"/>
					<stop  offset="1" style="stop-color:#2E353A"/>
				</linearGradient>
				
					<rect x="57.007" y="44.354" clip-path="url(#SVGID_8_)" mask="url(#SVGID_9_)" fill="url(#SVGID_11_)" width="173.348" height="12.381"/>
			</g>
			<g clip-path="url(#SVGID_2_)">
				<defs>
					<path id="SVGID_12_" d="M56.956,12.175l-0.219,0.253c-2.192,2.543-5,4.48-8.155,5.628c-0.518,0.132-1.344,0.459-1.344,1.214
						v6.021c-0.022,0.131-0.01,0.265,0.035,0.39c0.186,0.376,0.592,0.592,1.008,0.535h0.07c0.101-0.013,0.202-0.019,0.305-0.016
						c1.239-0.003,2.367,0.72,2.882,1.848L51.74,30.8v28.192h13.398h0.004V12.175H56.956z"/>
				</defs>
				<clipPath id="SVGID_13_">
					<use xlink:href="#SVGID_12_"  overflow="visible"/>
				</clipPath>
				
					<linearGradient id="SVGID_14_" gradientUnits="userSpaceOnUse" x1="-424.6221" y1="-20.9287" x2="-424.0771" y2="-20.9287" gradientTransform="matrix(0 85.9495 -32.8907 0 -632.1797 36508.2188)">
					<stop  offset="0" style="stop-color:#C9252C"/>
					<stop  offset="1" style="stop-color:#F0543F"/>
				</linearGradient>
				<rect x="47.216" y="12.175" clip-path="url(#SVGID_13_)" fill="url(#SVGID_14_)" width="17.927" height="46.817"/>
			</g>
			<g clip-path="url(#SVGID_2_)">
				<defs>
					<rect id="SVGID_15_" x="37.143" y="5.605" width="203.191" height="60.454"/>
				</defs>
				<clipPath id="SVGID_16_">
					<use xlink:href="#SVGID_15_"  overflow="visible"/>
				</clipPath>
				<path clip-path="url(#SVGID_16_)" fill="#FFFFFF" d="M57.287,12.906c-2.281,2.647-5.209,4.662-8.498,5.85
					c0,0-0.839,0.2-0.839,0.514v6.12c0,0-0.105,0.092,0.317,0.092c0.125-0.013,0.25-0.02,0.375-0.02
					c1.575,0.001,2.997,0.95,3.602,2.407l0.213,2.905V58.26h11.945V12.906h-7.124 M56.606,11.446h9.251V59.72H50.996V30.828
					l-0.189-2.589c-0.418-0.811-1.252-1.319-2.164-1.317c-0.079-0.002-0.156,0.002-0.233,0.013h-0.07h-0.071
					c-0.729,0.091-1.427-0.323-1.696-1.009c-0.081-0.221-0.109-0.458-0.08-0.692v-5.966c0-0.434,0.185-1.476,1.869-1.91
					c3.026-1.105,5.719-2.967,7.824-5.406L56.606,11.446z"/>
			</g>
			<g clip-path="url(#SVGID_2_)">
				<defs>
					<path id="SVGID_17_" d="M79.845,12.175l-0.218,0.253c-2.193,2.543-5.002,4.48-8.155,5.628
						c-0.519,0.132-1.344,0.459-1.344,1.214v6.021c-0.024,0.131-0.012,0.265,0.035,0.39c0.184,0.376,0.59,0.592,1.006,0.535h0.069
						c0.101-0.013,0.202-0.019,0.306-0.016c1.239-0.003,2.366,0.72,2.883,1.848l0.2,2.753v28.192h13.401h0.003V12.175H79.845z"/>
				</defs>
				<clipPath id="SVGID_18_">
					<use xlink:href="#SVGID_17_"  overflow="visible"/>
				</clipPath>
				
					<linearGradient id="SVGID_19_" gradientUnits="userSpaceOnUse" x1="-424.6221" y1="-20.3477" x2="-424.0771" y2="-20.3477" gradientTransform="matrix(0 85.9495 -32.8907 0 -590.1797 36508.2188)">
					<stop  offset="0" style="stop-color:#C9252C"/>
					<stop  offset="1" style="stop-color:#F0543F"/>
				</linearGradient>
				<rect x="70.104" y="12.175" clip-path="url(#SVGID_18_)" fill="url(#SVGID_19_)" width="17.928" height="46.817"/>
			</g>
			<g clip-path="url(#SVGID_2_)">
				<defs>
					<rect id="SVGID_20_" x="37.143" y="5.605" width="203.191" height="60.454"/>
				</defs>
				<clipPath id="SVGID_21_">
					<use xlink:href="#SVGID_20_"  overflow="visible"/>
				</clipPath>
				<path clip-path="url(#SVGID_21_)" fill="#FFFFFF" d="M80.177,12.906c-2.281,2.647-5.209,4.662-8.496,5.85
					c0,0-0.841,0.2-0.841,0.514v6.12c0,0-0.105,0.092,0.316,0.092c0.126-0.013,0.25-0.02,0.375-0.02
					c1.577,0.001,2.998,0.95,3.603,2.407l0.213,2.905V58.26H87.29V12.906h-7.124 M79.495,11.446h9.248V59.72H73.882V30.828
					l-0.188-2.589c-0.419-0.81-1.252-1.318-2.165-1.317c-0.077-0.002-0.155,0.002-0.232,0.013h-0.069h-0.071
					c-0.729,0.091-1.429-0.323-1.696-1.009c-0.082-0.221-0.109-0.458-0.08-0.692v-5.966c0-0.434,0.183-1.476,1.869-1.91
					c3.026-1.107,5.719-2.967,7.824-5.406L79.495,11.446z"/>
			</g>
			<g clip-path="url(#SVGID_2_)">
				<defs>
					<path id="SVGID_22_" d="M102.239,12.175l-0.219,0.253c-2.191,2.543-5.001,4.48-8.156,5.628
						c-0.518,0.132-1.343,0.459-1.343,1.214v6.023c-0.025,0.129-0.015,0.262,0.029,0.387c0.185,0.376,0.59,0.592,1.007,0.535h0.07
						c0.101-0.013,0.203-0.019,0.306-0.016c1.24-0.003,2.368,0.72,2.883,1.848l0.201,2.753v28.192h13.405h0.002V12.175H102.239z"/>
				</defs>
				<clipPath id="SVGID_23_">
					<use xlink:href="#SVGID_22_"  overflow="visible"/>
				</clipPath>
				
					<linearGradient id="SVGID_24_" gradientUnits="userSpaceOnUse" x1="-424.6216" y1="-19.7764" x2="-424.0767" y2="-19.7764" gradientTransform="matrix(0 85.9495 -32.8949 0 -549.0898 36508.2188)">
					<stop  offset="0" style="stop-color:#C9252C"/>
					<stop  offset="1" style="stop-color:#F0543F"/>
				</linearGradient>
				<rect x="92.496" y="12.175" clip-path="url(#SVGID_23_)" fill="url(#SVGID_24_)" width="17.929" height="46.817"/>
			</g>
			<g clip-path="url(#SVGID_2_)">
				<defs>
					<rect id="SVGID_25_" x="37.143" y="5.605" width="203.191" height="60.454"/>
				</defs>
				<clipPath id="SVGID_26_">
					<use xlink:href="#SVGID_25_"  overflow="visible"/>
				</clipPath>
				<path clip-path="url(#SVGID_26_)" fill="#FFFFFF" d="M102.573,12.906c-2.281,2.647-5.208,4.662-8.497,5.85
					c0,0-0.841,0.2-0.841,0.514v6.12c0,0-0.104,0.092,0.317,0.092c0.124-0.013,0.249-0.02,0.375-0.02
					c1.581-0.006,3.014,0.945,3.62,2.407l0.211,2.905V58.26h11.944V12.906h-7.123 M101.908,11.446h9.249V59.72H96.295V30.828
					l-0.19-2.589c-0.419-0.811-1.253-1.319-2.164-1.317c-0.077-0.002-0.156,0.002-0.233,0.013h-0.071h-0.07
					c-0.728,0.091-1.427-0.323-1.695-1.009c-0.082-0.221-0.107-0.458-0.079-0.692v-5.966c0-0.434,0.184-1.476,1.868-1.91
					c3.024-1.108,5.717-2.968,7.818-5.406L101.908,11.446z"/>
			</g>
			<g clip-path="url(#SVGID_2_)">
				<defs>
					<path id="SVGID_27_" d="M125.13,12.175l-0.217,0.253c-2.192,2.542-5.002,4.48-8.155,5.628c-0.52,0.132-1.345,0.459-1.345,1.214
						v6.021c-0.022,0.131-0.01,0.265,0.035,0.39c0.186,0.376,0.591,0.592,1.008,0.535h0.071c0.1-0.013,0.202-0.019,0.304-0.016
						c1.24-0.004,2.369,0.719,2.882,1.848l0.201,2.753v28.192h13.403h-0.002V12.175H125.13z"/>
				</defs>
				<clipPath id="SVGID_28_">
					<use xlink:href="#SVGID_27_"  overflow="visible"/>
				</clipPath>
				
					<linearGradient id="SVGID_29_" gradientUnits="userSpaceOnUse" x1="-424.6221" y1="-19.1953" x2="-424.0771" y2="-19.1953" gradientTransform="matrix(0 85.9495 -32.8907 0 -507.0234 36508.2188)">
					<stop  offset="0" style="stop-color:#C9252C"/>
					<stop  offset="1" style="stop-color:#F0543F"/>
				</linearGradient>
				<rect x="115.391" y="12.175" clip-path="url(#SVGID_28_)" fill="url(#SVGID_29_)" width="17.927" height="46.817"/>
			</g>
			<g clip-path="url(#SVGID_2_)">
				<defs>
					<rect id="SVGID_30_" x="37.143" y="5.605" width="203.191" height="60.454"/>
				</defs>
				<clipPath id="SVGID_31_">
					<use xlink:href="#SVGID_30_"  overflow="visible"/>
				</clipPath>
				<path clip-path="url(#SVGID_31_)" fill="#FFFFFF" d="M125.472,12.906c-2.281,2.647-5.208,4.662-8.496,5.85
					c0,0-0.841,0.2-0.841,0.514v6.12c0,0-0.105,0.092,0.317,0.092c0.124-0.013,0.251-0.02,0.374-0.02
					c1.579-0.001,3.004,0.948,3.607,2.407l0.214,2.905V58.26h11.942V12.906h-7.123 M124.795,11.446h9.249V59.72h-14.861V30.828
					l-0.189-2.589c-0.418-0.811-1.253-1.319-2.165-1.317c-0.078-0.002-0.156,0.002-0.232,0.013h-0.069h-0.07
					c-0.729,0.091-1.43-0.323-1.697-1.009c-0.081-0.221-0.108-0.458-0.079-0.692v-5.966c0-0.434,0.185-1.476,1.868-1.91
					c3.025-1.107,5.716-2.967,7.819-5.406L124.795,11.446z"/>
				<path clip-path="url(#SVGID_31_)" d="M149.886,17.422c-0.024,0.911-0.048,2.156-0.169,3.569
					c0.336,2.995,1.797,12.554,10.158,16.268c-0.646,0.504-1.316,1.295-1.628,1.893c-5.631-2.659-8.241-7.93-9.512-12.219
					c-1.197,4.505-3.739,9.346-9.151,12.339c-0.383-0.575-1.104-1.293-1.846-1.772c9.8-5.079,9.536-16.244,9.607-20.077H149.886z"/>
				<path clip-path="url(#SVGID_31_)" d="M181.841,22.429c0,0-0.023,0.791-0.047,1.102c-0.526,9.704-0.983,13.249-2.037,14.472
					c-0.647,0.767-1.27,1.006-2.204,1.102c-0.861,0.096-2.396,0.071-3.809,0c-0.049-0.647-0.36-1.629-0.792-2.3
					c1.583,0.144,3.042,0.144,3.643,0.144c0.526,0,0.814-0.071,1.101-0.359c0.816-0.768,1.318-4.049,1.727-11.883h-7.499
					c-0.36,4.936-1.988,10.733-8.793,14.759c-0.359-0.552-1.197-1.39-1.725-1.797c6.228-3.57,7.786-8.649,8.145-12.962h-7.426
					v-2.276h7.546V21.83v-4.432h2.349v4.432v0.599H181.841z"/>
				<path clip-path="url(#SVGID_31_)" d="M193.721,34.695l0.191,1.869c-3.043,0.743-6.277,1.557-8.721,2.132l-0.551-2.155
					c1.054-0.192,2.372-0.454,3.833-0.743v-6.349H185v-1.94h3.474v-2.253h-2.228v-1.078c-0.336,0.287-0.673,0.576-0.983,0.792
					c-0.144-0.456-0.671-1.606-0.957-2.134c1.916-1.294,3.928-3.353,5.102-5.51l1.845,0.694c-0.144,0.239-0.287,0.528-0.453,0.791
					c1.412,1.079,2.851,2.349,3.712,3.281l-1.341,1.583c-0.839-0.911-2.181-2.181-3.426-3.258c-0.791,1.053-1.677,2.059-2.589,2.945
					h5.559v1.893h-2.3v2.253h3.235v1.94h-3.235v5.941L193.721,34.695z M186.988,30.479c0.454,1.365,0.887,3.114,1.029,4.289
					l-1.604,0.454c-0.097-1.174-0.526-2.994-0.935-4.385L186.988,30.479z M190.822,34.336c0.358-1.15,0.813-2.946,1.029-4.193
					l1.678,0.48c-0.456,1.391-0.959,3.066-1.391,4.146L190.822,34.336z M206.275,31.077c-1.055,0.863-2.373,1.798-3.498,2.492
					c1.029,1.558,2.299,2.827,3.856,3.595c-0.527,0.43-1.198,1.292-1.534,1.892c-3.233-1.892-5.149-5.582-6.276-10.063h-1.677v7.236
					l3.594-0.982c0,0.6,0.096,1.462,0.191,1.965c-4.863,1.485-5.653,1.796-6.134,2.181c-0.12-0.527-0.454-1.462-0.766-1.917
					c0.454-0.191,0.959-0.574,0.959-1.461V18.38h10.444v10.612h-4.671c0.31,1.032,0.671,2.013,1.102,2.948
					c1.029-0.719,2.204-1.653,2.971-2.396L206.275,31.077z M197.146,22.74h6.133v-2.443h-6.133V22.74z M197.146,27.053h6.133v-2.491
					h-6.133V27.053z"/>
				<path clip-path="url(#SVGID_31_)" d="M216.188,23.243c-0.742,1.222-1.629,2.469-2.612,3.666v12.482h-2.227V29.376
					c-0.792,0.791-1.606,1.534-2.372,2.156c-0.288-0.479-1.079-1.46-1.533-1.891c2.443-1.75,5.03-4.48,6.637-7.189L216.188,23.243z
					 M215.277,18.212c-1.628,2.134-4.119,4.505-6.324,6.062c-0.264-0.504-0.863-1.365-1.27-1.797
					c1.988-1.294,4.288-3.426,5.463-5.15L215.277,18.212z M229.653,27.412h-3.45v9.224c0,1.27-0.287,1.918-1.197,2.276
					c-0.888,0.335-2.302,0.359-4.528,0.359c-0.096-0.646-0.407-1.58-0.721-2.229c1.535,0.049,3.14,0.049,3.572,0.024
					c0.454,0,0.598-0.12,0.598-0.455v-9.2h-7.571V25.28h13.298V27.412z M228.982,20.872h-11.619V18.74h11.619V20.872z"/>
			</g>
		</g>
		<g>
			<polygon fill="#48C0D0" points="231.575,41.219 241.742,53.469 260.492,53.469 249.659,41.219 			"/>
			<path fill="#268693" d="M241.763,53.469c0,0-3.438,0.624-1.188,4.187L230.7,45.156c0,0-1.938-2.375,0.875-3.938L241.763,53.469z"
				/>
			<path fill="#268693" d="M239.873,56.767l0.702,0.889c0,0,0.438,0.438,1.188,0.438s18.281,0,18.281,0l-1.031-2.281l-17.656-0.25
				C241.356,55.562,238.846,55.652,239.873,56.767z"/>
			<path fill="#FFFFFF" d="M241.646,53.496c0,0-1.952,0.234-1.823,2.238s1.67,1.921,1.67,1.921h17.667v-4.159H241.646z"/>
		</g>
	</g>
</g>
</svg>
